# xmcd CD database file
#
# Track frame offsets:
#	150
#	21016
#	42589
#	59158
#	82187
#	105765
#	127024
#	146165
#	169434
#	186350
#	201060
#
# Disc length: 2938 seconds
#
# Revision: 1
# Processed by: cddbd v1.5.2PL0 Copyright (c) Steve Scherf et al.
# Submitted via: CDex 1.60beta1
#
DISCID=a70b780b
DTITLE=Tommy K. Jr. And Full Blast - Let Your Fingers Bleed
DYEAR=2006
DGENRE=Blues
TTITLE0=Let Your Fingers Bleed
TTITLE1=My Blues For You
TTITLE2=Swang Thang
TTITLE3=Stop For A Minute
TTITLE4=The Last Sigh
TTITLE5=When It's Shinin' Blue
TTITLE6=Visiting Austin
TTITLE7=I Need SomeOne
TTITLE8=Come On Lucy
TTITLE9=Double Magic
TTITLE10=My Blues For You (Acoustic Version)
EXTD=YEAR: 2006
EXTT0=
EXTT1=
EXTT2=
EXTT3=
EXTT4=
EXTT5=
EXTT6=
EXTT7=
EXTT8=
EXTT9=
EXTT10=
PLAYORDER=
